<svg id="visual" viewBox="0 0 900 600" width="900" height="600" xmlns="http://www.w3.org/2000/svg" xmlns:xlink="http://www.w3.org/1999/xlink" version="1.1"><rect x="0" y="0" width="900" height="600" fill="#001220"></rect><defs><linearGradient id="grad1_0" x1="33.3%" y1="0%" x2="100%" y2="100%"><stop offset="20%" stop-color="#001220" stop-opacity="1"></stop><stop offset="80%" stop-color="#001220" stop-opacity="1"></stop></linearGradient></defs><defs><linearGradient id="grad2_0" x1="0%" y1="0%" x2="66.7%" y2="100%"><stop offset="20%" stop-color="#001220" stop-opacity="1"></stop><stop offset="80%" stop-color="#001220" stop-opacity="1"></stop></linearGradient></defs><g transform="translate(900, 0)"><path d="M0 432.7C-44.5 425.6 -89.1 418.5 -130.4 401.3C-171.8 384.1 -209.9 356.8 -235.1 323.6C-260.3 290.4 -272.6 251.3 -304.2 221C-335.8 190.7 -386.8 169.1 -411.5 133.7C-436.1 98.3 -434.4 49.2 -432.7 0L0 0Z" fill="#8080ff"></path></g><g transform="translate(0, 600)"><path d="M0 -432.7C35.1 -399 70.2 -365.3 115.3 -354.7C160.3 -344.2 215.3 -356.9 242.8 -334.1C270.2 -311.4 270 -253.2 298.5 -216.9C327.1 -180.6 384.3 -166.2 411.5 -133.7C438.6 -101.2 435.7 -50.6 432.7 0L0 0Z" fill="#8080ff"></path></g></svg>