<svg id="visual" viewBox="0 0 900 600" width="900" height="600" xmlns="http://www.w3.org/2000/svg" xmlns:xlink="http://www.w3.org/1999/xlink" version="1.1"><path d="M0 433L21.5 422.8C43 412.7 86 392.3 128.8 381.2C171.7 370 214.3 368 257.2 366C300 364 343 362 385.8 375.5C428.7 389 471.3 418 514.2 428C557 438 600 429 642.8 415.7C685.7 402.3 728.3 384.7 771.2 377C814 369.3 857 371.7 878.5 372.8L900 374L900 601L878.5 601C857 601 814 601 771.2 601C728.3 601 685.7 601 642.8 601C600 601 557 601 514.2 601C471.3 601 428.7 601 385.8 601C343 601 300 601 257.2 601C214.3 601 171.7 601 128.8 601C86 601 43 601 21.5 601L0 601Z" fill="#9096a0"></path><path d="M0 425L21.5 424.2C43 423.3 86 421.7 128.8 421.2C171.7 420.7 214.3 421.3 257.2 428.7C300 436 343 450 385.8 451.8C428.7 453.7 471.3 443.3 514.2 443.7C557 444 600 455 642.8 452.2C685.7 449.3 728.3 432.7 771.2 432.5C814 432.3 857 448.7 878.5 456.8L900 465L900 601L878.5 601C857 601 814 601 771.2 601C728.3 601 685.7 601 642.8 601C600 601 557 601 514.2 601C471.3 601 428.7 601 385.8 601C343 601 300 601 257.2 601C214.3 601 171.7 601 128.8 601C86 601 43 601 21.5 601L0 601Z" fill="#727b90"></path><path d="M0 511L21.5 502.8C43 494.7 86 478.3 128.8 474.5C171.7 470.7 214.3 479.3 257.2 475.5C300 471.7 343 455.3 385.8 457.5C428.7 459.7 471.3 480.3 514.2 483.3C557 486.3 600 471.7 642.8 462.8C685.7 454 728.3 451 771.2 451.7C814 452.3 857 456.7 878.5 458.8L900 461L900 601L878.5 601C857 601 814 601 771.2 601C728.3 601 685.7 601 642.8 601C600 601 557 601 514.2 601C471.3 601 428.7 601 385.8 601C343 601 300 601 257.2 601C214.3 601 171.7 601 128.8 601C86 601 43 601 21.5 601L0 601Z" fill="#58617f"></path><path d="M0 534L21.5 534.7C43 535.3 86 536.7 128.8 531.2C171.7 525.7 214.3 513.3 257.2 511C300 508.7 343 516.3 385.8 519.5C428.7 522.7 471.3 521.3 514.2 518.8C557 516.3 600 512.7 642.8 513.3C685.7 514 728.3 519 771.2 523C814 527 857 530 878.5 531.5L900 533L900 601L878.5 601C857 601 814 601 771.2 601C728.3 601 685.7 601 642.8 601C600 601 557 601 514.2 601C471.3 601 428.7 601 385.8 601C343 601 300 601 257.2 601C214.3 601 171.7 601 128.8 601C86 601 43 601 21.5 601L0 601Z" fill="#41476e"></path><path d="M0 554L21.5 551.3C43 548.7 86 543.3 128.8 541C171.7 538.7 214.3 539.3 257.2 544.5C300 549.7 343 559.3 385.8 559.8C428.7 560.3 471.3 551.7 514.2 545.3C557 539 600 535 642.8 535.8C685.7 536.7 728.3 542.3 771.2 542C814 541.7 857 535.3 878.5 532.2L900 529L900 601L878.5 601C857 601 814 601 771.2 601C728.3 601 685.7 601 642.8 601C600 601 557 601 514.2 601C471.3 601 428.7 601 385.8 601C343 601 300 601 257.2 601C214.3 601 171.7 601 128.8 601C86 601 43 601 21.5 601L0 601Z" fill="#2d2d5b"></path></svg>