<svg id="visual" viewBox="0 0 900 600" width="900" height="600" xmlns="http://www.w3.org/2000/svg" xmlns:xlink="http://www.w3.org/1999/xlink" version="1.1"><rect x="0" y="0" width="900" height="600" fill="#001220"></rect><path d="M0 429L21.5 430.3C43 431.7 86 434.3 128.8 436.3C171.7 438.3 214.3 439.7 257.2 429.2C300 418.7 343 396.3 385.8 382C428.7 367.7 471.3 361.3 514.2 370.2C557 379 600 403 642.8 407.2C685.7 411.3 728.3 395.7 771.2 397.5C814 399.3 857 418.7 878.5 428.3L900 438L900 601L878.5 601C857 601 814 601 771.2 601C728.3 601 685.7 601 642.8 601C600 601 557 601 514.2 601C471.3 601 428.7 601 385.8 601C343 601 300 601 257.2 601C214.3 601 171.7 601 128.8 601C86 601 43 601 21.5 601L0 601Z" fill="#c3daff"></path><path d="M0 439L21.5 438.7C43 438.3 86 437.7 128.8 434.5C171.7 431.3 214.3 425.7 257.2 429.3C300 433 343 446 385.8 453.7C428.7 461.3 471.3 463.7 514.2 457.5C557 451.3 600 436.7 642.8 433.7C685.7 430.7 728.3 439.3 771.2 437.7C814 436 857 424 878.5 418L900 412L900 601L878.5 601C857 601 814 601 771.2 601C728.3 601 685.7 601 642.8 601C600 601 557 601 514.2 601C471.3 601 428.7 601 385.8 601C343 601 300 601 257.2 601C214.3 601 171.7 601 128.8 601C86 601 43 601 21.5 601L0 601Z" fill="#a9c6ff"></path><path d="M0 458L21.5 462.8C43 467.7 86 477.3 128.8 475.7C171.7 474 214.3 461 257.2 463.3C300 465.7 343 483.3 385.8 482.2C428.7 481 471.3 461 514.2 450.7C557 440.3 600 439.7 642.8 451.2C685.7 462.7 728.3 486.3 771.2 497.5C814 508.7 857 507.3 878.5 506.7L900 506L900 601L878.5 601C857 601 814 601 771.2 601C728.3 601 685.7 601 642.8 601C600 601 557 601 514.2 601C471.3 601 428.7 601 385.8 601C343 601 300 601 257.2 601C214.3 601 171.7 601 128.8 601C86 601 43 601 21.5 601L0 601Z" fill="#93b0ff"></path><path d="M0 506L21.5 507C43 508 86 510 128.8 511.3C171.7 512.7 214.3 513.3 257.2 513.8C300 514.3 343 514.7 385.8 516.5C428.7 518.3 471.3 521.7 514.2 517.8C557 514 600 503 642.8 504.8C685.7 506.7 728.3 521.3 771.2 525.3C814 529.3 857 522.7 878.5 519.3L900 516L900 601L878.5 601C857 601 814 601 771.2 601C728.3 601 685.7 601 642.8 601C600 601 557 601 514.2 601C471.3 601 428.7 601 385.8 601C343 601 300 601 257.2 601C214.3 601 171.7 601 128.8 601C86 601 43 601 21.5 601L0 601Z" fill="#8599ff"></path><path d="M0 538L21.5 536C43 534 86 530 128.8 529.3C171.7 528.7 214.3 531.3 257.2 537.8C300 544.3 343 554.7 385.8 553.8C428.7 553 471.3 541 514.2 538.8C557 536.7 600 544.3 642.8 549.7C685.7 555 728.3 558 771.2 561.3C814 564.7 857 568.3 878.5 570.2L900 572L900 601L878.5 601C857 601 814 601 771.2 601C728.3 601 685.7 601 642.8 601C600 601 557 601 514.2 601C471.3 601 428.7 601 385.8 601C343 601 300 601 257.2 601C214.3 601 171.7 601 128.8 601C86 601 43 601 21.5 601L0 601Z" fill="#8080ff"></path></svg>